<svg xmlns="http://www.w3.org/2000/svg" viewBox="0 0 256 256"><defs><style>.cls-1{fill:#56d0fc;}.cls-2,.cls-5,.cls-6{fill:none;stroke:#205081;stroke-miterlimit:10;}.cls-3{fill:#3ed6ca;}.cls-4{fill:#fec72e;}.cls-5{stroke-dasharray:2;}.cls-6{stroke-linecap:round;stroke-dasharray:4;}.cls-7{fill:#d3d7da;}.cls-8{fill:#fff;}.cls-9{font-size:19.15px;fill:#205081;font-family:MyriadPro-Regular, Myriad Pro;}</style></defs><title>-</title><g id="Layer_1" data-name="Layer 1"><path class="cls-1" d="M81,95.71h65.75V85.88s-.46-2.26-3.79-2.26H84.13s-2.84.46-3.13,3.13A87.73,87.73,0,0,0,81,95.71Z"/><line class="cls-2" x1="85.13" y1="117.81" x2="142.75" y2="117.81"/><line class="cls-2" x1="85.13" y1="129.98" x2="142.75" y2="129.98"/><line class="cls-2" x1="63.1" y1="169.04" x2="199.79" y2="169.04"/><line class="cls-2" x1="56.21" y1="163.96" x2="80.36" y2="163.96"/><line class="cls-2" x1="95.44" y1="163.96" x2="111.15" y2="163.96"/><line class="cls-2" x1="119.4" y1="163.96" x2="156.76" y2="163.96"/><line class="cls-2" x1="164.23" y1="163.96" x2="180.66" y2="163.96"/><polygon class="cls-3" points="169.69 84.19 167.22 82.79 164.66 84.04 165.22 81.25 163.25 79.2 166.07 78.88 167.41 76.37 168.59 78.96 171.4 79.45 169.3 81.38 169.69 84.19"/><line class="cls-2" x1="171.67" y1="137.57" x2="174.31" y2="137.57"/><line class="cls-2" x1="178.56" y1="137.57" x2="181.2" y2="137.57"/><line class="cls-2" x1="176.43" y1="132.81" x2="176.43" y2="135.44"/><line class="cls-2" x1="176.43" y1="139.7" x2="176.43" y2="142.33"/><line class="cls-2" x1="60.76" y1="138.21" x2="63.4" y2="138.21"/><line class="cls-2" x1="67.65" y1="138.21" x2="70.29" y2="138.21"/><line class="cls-2" x1="65.52" y1="133.44" x2="65.52" y2="136.08"/><line class="cls-2" x1="65.52" y1="140.33" x2="65.52" y2="142.97"/><polygon class="cls-1" points="65.48 88.14 62.99 86.73 60.42 87.99 60.99 85.19 59.01 83.13 61.85 82.81 63.19 80.28 64.38 82.88 67.19 83.38 65.09 85.31 65.48 88.14"/><circle class="cls-4" cx="114.73" cy="54.67" r="3.31"/><circle class="cls-5" cx="114.73" cy="54.67" r="5.17"/><line class="cls-6" x1="154.88" y1="85.88" x2="154.88" y2="129.63"/><path class="cls-7" d="M141.75,140.33v1.87a3.13,3.13,0,0,1-3.13,3.13H79.13A3.13,3.13,0,0,1,76,142.2V91.75a3.13,3.13,0,0,1,3.13-3.13h1.93V137.2a3.13,3.13,0,0,0,3.13,3.13Z"/><rect class="cls-2" x="81" y="83.62" width="65.75" height="56.71" rx="3.13" ry="3.13"/><line class="cls-2" x1="81" y1="96.04" x2="146.75" y2="96.04"/><line class="cls-2" x1="85.13" y1="105.64" x2="142.75" y2="105.64"/><rect class="cls-4" x="95.5" y="102.54" width="17.08" height="5.67" rx="2.83" ry="2.83"/><rect class="cls-1" x="102.5" y="114.71" width="22.67" height="5.67" rx="2.83" ry="2.83"/><rect class="cls-4" x="115.5" y="126.87" width="21.42" height="5.67" rx="2.83" ry="2.83"/><rect class="cls-2" x="95.5" y="102.54" width="17.08" height="5.67" rx="2.83" ry="2.83"/><rect class="cls-2" x="102.5" y="114.71" width="22.67" height="5.67" rx="2.83" ry="2.83"/><rect class="cls-2" x="115.5" y="126.87" width="21.42" height="5.67" rx="2.83" ry="2.83"/><rect class="cls-8" x="86.42" y="88.14" width="3.95" height="3.95"/><rect class="cls-8" x="93.53" y="88.14" width="3.95" height="3.95"/><rect class="cls-8" x="100.63" y="88.14" width="3.95" height="3.95"/><text class="cls-9" transform="translate(80.36 201.71)">TIMELINE</text></g></svg>