<svg xmlns="http://www.w3.org/2000/svg" viewBox="0 0 83.995 61">
  <defs>
    <style>
      .cls-1 {
        fill: #fff;
      }
    </style>
  </defs>
  <path id="Cloudy_Icon" data-name="Cloudy Icon" class="cls-1" d="M1236.284,986.98c-.056,0-29.533.02-43.616.02a10.946,10.946,0,0,1-.937-21.847A15.533,15.533,0,1,1,1218.5,949.4a22.6,22.6,0,1,1,17.78,37.582Zm-31.172-42.214a12.456,12.456,0,0,0-9.6,20.381,15.626,15.626,0,0,1,14.246-9.43,15.391,15.391,0,0,1,4.554.683,22.473,22.473,0,0,1,2.125-4.245A12.415,12.415,0,0,0,1205.112,944.766Zm30.329,0a19.549,19.549,0,0,0-18.662,14.091,1.562,1.562,0,0,1-.83.978,1.533,1.533,0,0,1-1.278.022,12.309,12.309,0,0,0-4.91-1.014,12.512,12.512,0,0,0-11.941,9.009,1.565,1.565,0,0,1-.828.978,1.547,1.547,0,0,1-1.277.024,7.648,7.648,0,0,0-3.046-.625,7.819,7.819,0,0,0,0,15.639c14.083,0,43.557-.018,43.557-.018a19.553,19.553,0,0,0-.784-39.085Zm-14.93-.759a1.55,1.55,0,0,1-2.2,0,1.57,1.57,0,0,1,0-2.212l6.6-6.636a1.55,1.55,0,0,1,2.2,0,1.57,1.57,0,0,1,0,2.212Zm-15.4-5.5a1.56,1.56,0,0,1-1.556-1.564v-9.385a1.556,1.556,0,1,1,3.111,0v9.385A1.56,1.56,0,0,1,1205.111,938.513Zm-15.391,5.493-6.6-6.636a1.57,1.57,0,0,1,0-2.212,1.55,1.55,0,0,1,2.2,0l6.6,6.636a1.57,1.57,0,0,1,0,2.212A1.55,1.55,0,0,1,1189.719,944.005Zm-3.27,13.275a1.56,1.56,0,0,1-1.556,1.564h-9.333a1.564,1.564,0,0,1,0-3.128h9.333A1.56,1.56,0,0,1,1186.449,957.28Z" transform="translate(-1174.005 -926)"/>
</svg>
