<svg xmlns="http://www.w3.org/2000/svg" viewBox="0 0 454 130">
  <defs>
    <style>
      .cls-1 {
        fill: none;
        stroke: #1c1a1d;
        stroke-width: 2px;
        opacity: 0.2;
      }

      .cls-2 {
        fill: #fafbfc;
      }

      .cls-3, .cls-4 {
        stroke: none;
      }

      .cls-4 {
        fill: #2259e4;
      }
    </style>
  </defs>
  <g id="Group_758" data-name="Group 758" transform="translate(-1320 -219)">
    <path id="Line" class="cls-1" d="M1327,216l40,29h40l39,47,41-57,40,10,39-20,40-50,40,30,42-4,39,51,41-30" transform="translate(0 50)"/>
    <g id="Dots" class="cls-2" transform="translate(0 50)">
      <path class="cls-3" d="M 1446.499877929688 297.4998168945312 C 1443.742919921875 297.4998168945312 1441.5 295.2569274902344 1441.5 292.5 C 1441.5 289.7431030273438 1443.742919921875 287.500244140625 1446.499877929688 287.500244140625 C 1449.256713867188 287.500244140625 1451.499633789062 289.7431030273438 1451.499633789062 292.5 C 1451.499633789062 295.2569274902344 1449.256713867188 297.4998168945312 1446.499877929688 297.4998168945312 Z M 1726.499755859375 257.500244140625 C 1723.742919921875 257.500244140625 1721.5 255.2573547363281 1721.5 252.5004119873047 C 1721.5 249.7429962158203 1723.742919921875 247.4997100830078 1726.499755859375 247.4997100830078 C 1729.257202148438 247.4997100830078 1731.50048828125 249.7429962158203 1731.50048828125 252.5004119873047 C 1731.50048828125 255.2573547363281 1729.257202148438 257.500244140625 1726.499755859375 257.500244140625 Z M 1526.499877929688 250.5 C 1523.743041992188 250.5 1521.500122070312 248.2571105957031 1521.500122070312 245.5002288818359 C 1521.500122070312 242.7433013916016 1523.743041992188 240.5004119873047 1526.499877929688 240.5004119873047 C 1529.2568359375 240.5004119873047 1531.499755859375 242.7433013916016 1531.499755859375 245.5002288818359 C 1531.499755859375 248.2571105957031 1529.2568359375 250.5 1526.499877929688 250.5 Z M 1406.500244140625 250.5 C 1403.743408203125 250.5 1401.50048828125 248.2571105957031 1401.50048828125 245.5002288818359 C 1401.50048828125 242.7433013916016 1403.743408203125 240.5004119873047 1406.500244140625 240.5004119873047 C 1409.257080078125 240.5004119873047 1411.5 242.7433013916016 1411.5 245.5002288818359 C 1411.5 248.2571105957031 1409.257080078125 250.5 1406.500244140625 250.5 Z M 1367.499633789062 250.5 C 1364.742797851562 250.5 1362.499877929688 248.2571105957031 1362.499877929688 245.5002288818359 C 1362.499877929688 242.7433013916016 1364.742797851562 240.5004119873047 1367.499633789062 240.5004119873047 C 1370.257080078125 240.5004119873047 1372.500366210938 242.7433013916016 1372.500366210938 245.5002288818359 C 1372.500366210938 248.2571105957031 1370.257080078125 250.5 1367.499633789062 250.5 Z M 1486.500366210938 240.5001220703125 C 1483.742919921875 240.5001220703125 1481.499633789062 238.2572326660156 1481.499633789062 235.5002899169922 C 1481.499633789062 232.7428894042969 1483.742919921875 230.4995880126953 1486.500366210938 230.4995880126953 C 1489.257202148438 230.4995880126953 1491.500122070312 232.7428894042969 1491.500122070312 235.5002899169922 C 1491.500122070312 238.2572326660156 1489.257202148438 240.5001220703125 1486.500366210938 240.5001220703125 Z M 1566.50048828125 230.5001831054688 C 1563.743041992188 230.5001831054688 1561.499755859375 228.2572937011719 1561.499755859375 225.5004119873047 C 1561.499755859375 222.7429962158203 1563.743041992188 220.4997100830078 1566.50048828125 220.4997100830078 C 1569.25732421875 220.4997100830078 1571.500244140625 222.7429962158203 1571.500244140625 225.5004119873047 C 1571.500244140625 228.2572937011719 1569.25732421875 230.5001831054688 1566.50048828125 230.5001831054688 Z M 1767.500122070312 227.4995880126953 C 1764.743286132812 227.4995880126953 1762.500366210938 225.2566986083984 1762.500366210938 222.4998168945312 C 1762.500366210938 219.7428894042969 1764.743286132812 217.5 1767.500122070312 217.5 C 1770.257080078125 217.5 1772.5 219.7428894042969 1772.5 222.4998168945312 C 1772.5 225.2566986083984 1770.257080078125 227.4995880126953 1767.500122070312 227.4995880126953 Z M 1326.500122070312 220.5002899169922 C 1323.743286132812 220.5002899169922 1321.500366210938 218.2570037841797 1321.500366210938 215.4995880126953 C 1321.500366210938 212.7427062988281 1323.743286132812 210.4998168945312 1326.500122070312 210.4998168945312 C 1329.256958007812 210.4998168945312 1331.499877929688 212.7427062988281 1331.499877929688 215.4995880126953 C 1331.499877929688 218.2570037841797 1329.256958007812 220.5002899169922 1326.500122070312 220.5002899169922 Z M 1646.499633789062 210.5004119873047 C 1643.742797851562 210.5004119873047 1641.499877929688 208.2571105957031 1641.499877929688 205.4997100830078 C 1641.499877929688 202.7427673339844 1643.742797851562 200.4998779296875 1646.499633789062 200.4998779296875 C 1649.257080078125 200.4998779296875 1651.500366210938 202.7427673339844 1651.500366210938 205.4997100830078 C 1651.500366210938 208.2571105957031 1649.257080078125 210.5004119873047 1646.499633789062 210.5004119873047 Z M 1687.5 207.4998168945312 C 1684.7431640625 207.4998168945312 1682.500244140625 205.2569427490234 1682.500244140625 202.5 C 1682.500244140625 199.7430572509766 1684.7431640625 197.5001831054688 1687.5 197.5001831054688 C 1690.256958007812 197.5001831054688 1692.499877929688 199.7430572509766 1692.499877929688 202.5 C 1692.499877929688 205.2569427490234 1690.256958007812 207.4998168945312 1687.5 207.4998168945312 Z M 1606.5 180.4998168945312 C 1603.7431640625 180.4998168945312 1601.500244140625 178.2569427490234 1601.500244140625 175.5 C 1601.500244140625 172.7430572509766 1603.7431640625 170.5001831054688 1606.5 170.5001831054688 C 1609.256958007812 170.5001831054688 1611.499877929688 172.7430572509766 1611.499877929688 175.5 C 1611.499877929688 178.2569427490234 1609.256958007812 180.4998168945312 1606.5 180.4998168945312 Z"/>
      <path class="cls-4" d="M 1446.499877929688 295.9998779296875 C 1448.429565429688 295.9998779296875 1449.999633789062 294.4298706054688 1449.999633789062 292.5 C 1449.999633789062 290.5702514648438 1448.429565429688 289.0002746582031 1446.499877929688 289.0002746582031 C 1444.569946289062 289.0002746582031 1443 290.5702514648438 1443 292.5 C 1443 294.4298706054688 1444.569946289062 295.9998779296875 1446.499877929688 295.9998779296875 M 1726.499755859375 256.0002746582031 C 1728.430053710938 256.0002746582031 1730.00048828125 254.4302673339844 1730.00048828125 252.5003967285156 C 1730.00048828125 250.5701293945312 1728.430053710938 248.9997406005859 1726.499755859375 248.9997406005859 C 1724.569946289062 248.9997406005859 1723 250.5701293945312 1723 252.5003967285156 C 1723 254.4302673339844 1724.569946289062 256.0002746582031 1726.499755859375 256.0002746582031 M 1526.499877929688 249 C 1528.4296875 249 1529.999755859375 247.4299926757812 1529.999755859375 245.5002593994141 C 1529.999755859375 243.5704040527344 1528.4296875 242.0003967285156 1526.499877929688 242.0003967285156 C 1524.570068359375 242.0003967285156 1523.000122070312 243.5704040527344 1523.000122070312 245.5002593994141 C 1523.000122070312 247.4299926757812 1524.570068359375 249 1526.499877929688 249 M 1406.500244140625 249 C 1408.429931640625 249 1410 247.4299926757812 1410 245.5002593994141 C 1410 243.5704040527344 1408.429931640625 242.0003967285156 1406.500244140625 242.0003967285156 C 1404.570556640625 242.0003967285156 1403.00048828125 243.5704040527344 1403.00048828125 245.5002593994141 C 1403.00048828125 247.4299926757812 1404.570556640625 249 1406.500244140625 249 M 1367.499633789062 249 C 1369.429931640625 249 1371.000366210938 247.4299926757812 1371.000366210938 245.5002593994141 C 1371.000366210938 243.5704040527344 1369.429931640625 242.0003967285156 1367.499633789062 242.0003967285156 C 1365.56982421875 242.0003967285156 1363.999877929688 243.5704040527344 1363.999877929688 245.5002593994141 C 1363.999877929688 247.4299926757812 1365.56982421875 249 1367.499633789062 249 M 1486.500366210938 239.0001373291016 C 1488.430053710938 239.0001373291016 1490.000122070312 237.4301300048828 1490.000122070312 235.5002593994141 C 1490.000122070312 233.5700073242188 1488.430053710938 231.9996032714844 1486.500366210938 231.9996032714844 C 1484.569946289062 231.9996032714844 1482.999633789062 233.5700073242188 1482.999633789062 235.5002593994141 C 1482.999633789062 237.4301300048828 1484.569946289062 239.0001373291016 1486.500366210938 239.0001373291016 M 1566.50048828125 229.0001373291016 C 1568.430297851562 229.0001373291016 1570.000244140625 227.4301300048828 1570.000244140625 225.5003967285156 C 1570.000244140625 223.5701293945312 1568.430297851562 221.9997406005859 1566.50048828125 221.9997406005859 C 1564.570068359375 221.9997406005859 1562.999755859375 223.5701293945312 1562.999755859375 225.5003967285156 C 1562.999755859375 227.4301300048828 1564.570068359375 229.0001373291016 1566.50048828125 229.0001373291016 M 1767.500122070312 225.9996032714844 C 1769.429931640625 225.9996032714844 1771 224.4295959472656 1771 222.4998626708984 C 1771 220.5700073242188 1769.429931640625 219 1767.500122070312 219 C 1765.570434570312 219 1764.000366210938 220.5700073242188 1764.000366210938 222.4998626708984 C 1764.000366210938 224.4295959472656 1765.570434570312 225.9996032714844 1767.500122070312 225.9996032714844 M 1326.500122070312 219.0002593994141 C 1328.429809570312 219.0002593994141 1329.999877929688 217.4298706054688 1329.999877929688 215.4996032714844 C 1329.999877929688 213.5698699951172 1328.429809570312 211.9998626708984 1326.500122070312 211.9998626708984 C 1324.570434570312 211.9998626708984 1323.000366210938 213.5698699951172 1323.000366210938 215.4996032714844 C 1323.000366210938 217.4298706054688 1324.570434570312 219.0002593994141 1326.500122070312 219.0002593994141 M 1646.499633789062 209.0003967285156 C 1648.429931640625 209.0003967285156 1650.000366210938 207.4299926757812 1650.000366210938 205.4997406005859 C 1650.000366210938 203.5698699951172 1648.429931640625 201.9998626708984 1646.499633789062 201.9998626708984 C 1644.56982421875 201.9998626708984 1642.999877929688 203.5698699951172 1642.999877929688 205.4997406005859 C 1642.999877929688 207.4299926757812 1644.56982421875 209.0003967285156 1646.499633789062 209.0003967285156 M 1687.5 205.9998626708984 C 1689.429809570312 205.9998626708984 1690.999877929688 204.4298706054688 1690.999877929688 202.5 C 1690.999877929688 200.5702667236328 1689.429809570312 199.0002593994141 1687.5 199.0002593994141 C 1685.570190429688 199.0002593994141 1684.000244140625 200.5702667236328 1684.000244140625 202.5 C 1684.000244140625 204.4298706054688 1685.570190429688 205.9998626708984 1687.5 205.9998626708984 M 1606.5 178.9998626708984 C 1608.429809570312 178.9998626708984 1609.999877929688 177.4298706054688 1609.999877929688 175.5 C 1609.999877929688 173.5702667236328 1608.429809570312 172.0002593994141 1606.5 172.0002593994141 C 1604.570190429688 172.0002593994141 1603.000244140625 173.5702667236328 1603.000244140625 175.5 C 1603.000244140625 177.4298706054688 1604.570190429688 178.9998626708984 1606.5 178.9998626708984 M 1446.499877929688 298.9998779296875 C 1442.909790039062 298.9998779296875 1440 296.0901184082031 1440 292.5 C 1440 288.9098815917969 1442.909790039062 286.0002746582031 1446.499877929688 286.0002746582031 C 1450.089965820312 286.0002746582031 1452.999633789062 288.9098815917969 1452.999633789062 292.5 C 1452.999633789062 296.0901184082031 1450.089965820312 298.9998779296875 1446.499877929688 298.9998779296875 Z M 1726.499755859375 259.0002746582031 C 1722.910522460938 259.0002746582031 1720 256.089599609375 1720 252.5003967285156 C 1720 248.9102630615234 1722.910522460938 245.9997406005859 1726.499755859375 245.9997406005859 C 1730.08984375 245.9997406005859 1733.00048828125 248.9102630615234 1733.00048828125 252.5003967285156 C 1733.00048828125 256.089599609375 1730.08984375 259.0002746582031 1726.499755859375 259.0002746582031 Z M 1526.499877929688 252 C 1522.909790039062 252 1520.000122070312 249.0894622802734 1520.000122070312 245.5002593994141 C 1520.000122070312 241.9101257324219 1522.909790039062 239.0003967285156 1526.499877929688 239.0003967285156 C 1530.090087890625 239.0003967285156 1532.999755859375 241.9101257324219 1532.999755859375 245.5002593994141 C 1532.999755859375 249.0894622802734 1530.090087890625 252 1526.499877929688 252 Z M 1406.500244140625 252 C 1402.91015625 252 1400.00048828125 249.0894622802734 1400.00048828125 245.5002593994141 C 1400.00048828125 241.9101257324219 1402.91015625 239.0003967285156 1406.500244140625 239.0003967285156 C 1410.089477539062 239.0003967285156 1413 241.9101257324219 1413 245.5002593994141 C 1413 249.0894622802734 1410.089477539062 252 1406.500244140625 252 Z M 1367.499633789062 252 C 1363.910400390625 252 1360.999877929688 249.0894622802734 1360.999877929688 245.5002593994141 C 1360.999877929688 241.9101257324219 1363.910400390625 239.0003967285156 1367.499633789062 239.0003967285156 C 1371.089721679688 239.0003967285156 1374.000366210938 241.9101257324219 1374.000366210938 245.5002593994141 C 1374.000366210938 249.0894622802734 1371.089721679688 252 1367.499633789062 252 Z M 1486.500366210938 242.0001373291016 C 1482.910278320312 242.0001373291016 1479.999633789062 239.0894622802734 1479.999633789062 235.5002593994141 C 1479.999633789062 231.9102630615234 1482.910278320312 228.9996032714844 1486.500366210938 228.9996032714844 C 1490.089477539062 228.9996032714844 1493.000122070312 231.9102630615234 1493.000122070312 235.5002593994141 C 1493.000122070312 239.0894622802734 1490.089477539062 242.0001373291016 1486.500366210938 242.0001373291016 Z M 1566.50048828125 232.0001373291016 C 1562.910278320312 232.0001373291016 1559.999755859375 229.089599609375 1559.999755859375 225.5003967285156 C 1559.999755859375 221.9102630615234 1562.910278320312 218.9997406005859 1566.50048828125 218.9997406005859 C 1570.089599609375 218.9997406005859 1573.000244140625 221.9102630615234 1573.000244140625 225.5003967285156 C 1573.000244140625 229.089599609375 1570.089599609375 232.0001373291016 1566.50048828125 232.0001373291016 Z M 1767.500122070312 228.9996032714844 C 1763.910034179688 228.9996032714844 1761.000366210938 226.0898742675781 1761.000366210938 222.4998626708984 C 1761.000366210938 218.9105377197266 1763.910034179688 216 1767.500122070312 216 C 1771.090209960938 216 1774 218.9105377197266 1774 222.4998626708984 C 1774 226.0898742675781 1771.090209960938 228.9996032714844 1767.500122070312 228.9996032714844 Z M 1326.500122070312 222.0002593994141 C 1322.910034179688 222.0002593994141 1320.000366210938 219.0897369384766 1320.000366210938 215.4996032714844 C 1320.000366210938 211.910400390625 1322.910034179688 208.9998626708984 1326.500122070312 208.9998626708984 C 1330.090209960938 208.9998626708984 1332.999877929688 211.910400390625 1332.999877929688 215.4996032714844 C 1332.999877929688 219.0897369384766 1330.090209960938 222.0002593994141 1326.500122070312 222.0002593994141 Z M 1646.499633789062 212.0003967285156 C 1642.910400390625 212.0003967285156 1639.999877929688 209.0897369384766 1639.999877929688 205.4997406005859 C 1639.999877929688 201.9105377197266 1642.910400390625 198.9998626708984 1646.499633789062 198.9998626708984 C 1650.089721679688 198.9998626708984 1653.000366210938 201.9105377197266 1653.000366210938 205.4997406005859 C 1653.000366210938 209.0897369384766 1650.089721679688 212.0003967285156 1646.499633789062 212.0003967285156 Z M 1687.5 208.9998626708984 C 1683.910034179688 208.9998626708984 1681.000244140625 206.0901336669922 1681.000244140625 202.5 C 1681.000244140625 198.9098663330078 1683.910034179688 196.0002593994141 1687.5 196.0002593994141 C 1691.090087890625 196.0002593994141 1693.999877929688 198.9098663330078 1693.999877929688 202.5 C 1693.999877929688 206.0901336669922 1691.090087890625 208.9998626708984 1687.5 208.9998626708984 Z M 1606.5 181.9998626708984 C 1602.910034179688 181.9998626708984 1600.000244140625 179.0901336669922 1600.000244140625 175.5 C 1600.000244140625 171.9098663330078 1602.910034179688 169.0002593994141 1606.5 169.0002593994141 C 1610.090087890625 169.0002593994141 1612.999877929688 171.9098663330078 1612.999877929688 175.5 C 1612.999877929688 179.0901336669922 1610.090087890625 181.9998626708984 1606.5 181.9998626708984 Z"/>
    </g>
  </g>
</svg>
